<?xml version="1.0" encoding="utf-8"?>
<!-- Generator: Adobe Illustrator 24.2.3, SVG Export Plug-In . SVG Version: 6.00 Build 0)  -->
<svg version="1.1" id="Layer_1" xmlns="http://www.w3.org/2000/svg" xmlns:xlink="http://www.w3.org/1999/xlink" x="0px" y="0px"
	 viewBox="0 0 24 24" style="enable-background:new 0 0 24 24;" xml:space="preserve">
<style type="text/css">
	.st0{fill:#FFFFFF;}
</style>
<circle cx="12" cy="12" r="12"/>
<g>
	<path class="st0" d="M9.6,14.9l-1.1,0.8c-0.2,0.2-0.3,0.4-0.2,0.7l0.4,1.3c0.1,0.3,0.3,0.4,0.6,0.4h1.4c0.3,0,0.5-0.2,0.6-0.4
		l0.4-1.3c0.1-0.3,0-0.5-0.2-0.7l-1.1-0.8C10.1,14.7,9.8,14.7,9.6,14.9z"/>
	<path class="st0" d="M16.5,8.4L15.3,9c-0.2,0.1-0.4,0.4-0.4,0.6l0.1,1.4c0,0.3,0.2,0.5,0.5,0.6l1.3,0.3c0.3,0.1,0.5-0.1,0.7-0.3
		l0.7-1.2c0.1-0.2,0.1-0.5-0.1-0.7l-0.9-1C17.1,8.4,16.8,8.3,16.5,8.4z"/>
	<path class="st0" d="M16.5,14.3l-1.4-0.1c-0.3,0-0.5,0.1-0.6,0.4L14,15.8c-0.1,0.2,0,0.5,0.2,0.7l1,0.9c0.2,0.2,0.5,0.2,0.7,0.1
		l1.2-0.7c0.2-0.1,0.3-0.4,0.3-0.7l-0.3-1.3C17,14.5,16.8,14.3,16.5,14.3z"/>
	<path class="st0" d="M12.8,13.6c-0.2,0-0.4-0.1-0.5-0.2L6.8,7.9c-0.3-0.3-0.3-0.8,0-1.1s0.8-0.3,1.1,0l5.5,5.5
		c0.3,0.3,0.3,0.8,0,1.1C13.2,13.5,13,13.6,12.8,13.6z"/>
	<path class="st0" d="M14,8.1c-0.2,0-0.4-0.1-0.5-0.2L12,6.5c-0.3-0.3-0.3-0.8,0-1.1s0.8-0.3,1.1,0l1.4,1.4c0.3,0.3,0.3,0.8,0,1.1
		C14.4,8,14.2,8.1,14,8.1z"/>
	<path class="st0" d="M7.4,14.6c-0.2,0-0.4-0.1-0.5-0.2L5.5,13c-0.3-0.3-0.3-0.8,0-1.1s0.8-0.3,1.1,0L8,13.3c0.3,0.3,0.3,0.8,0,1.1
		C7.8,14.6,7.6,14.6,7.4,14.6z"/>
</g>
</svg>
