<?xml version="1.0" encoding="utf-8"?>
<!-- Generator: Adobe Illustrator 24.2.3, SVG Export Plug-In . SVG Version: 6.00 Build 0)  -->
<svg version="1.1" id="Layer_1" xmlns="http://www.w3.org/2000/svg" xmlns:xlink="http://www.w3.org/1999/xlink" x="0px" y="0px"
	 viewBox="0 0 24 24" style="enable-background:new 0 0 24 24;" xml:space="preserve">
<style type="text/css">
	.st0{fill-rule:evenodd;clip-rule:evenodd;fill:#FFFFFF;}
</style>
<circle cx="12" cy="12" r="12"/>
<path class="st0" d="M7.07375,7.45628c0.43478-0.7139,2.33589-1.29263,5.21735-1.29263s4.74523,0.6875,5.21734,1.29263
	c0.65217,0.8359-0.36739,2.81136-3.47823,4.73962c-2.65233,1.64405-4.60777,3.24304-3.04345,3.87788
	c2.50564,1.01684,2.42757,2.22511,2.10779,2.90736c-0.09943,0.21214-0.40458,0.18349-0.48318-0.03722
	c-0.14313-0.40192-0.46519-0.90726-1.18983-1.14664c-2.20483-0.72834-3.04345-1.29263-3.91301-2.15438
	c-0.6578-0.65189-1.36572-2.70944,0.86956-4.73962C9.49039,9.89302,6.23957,8.82598,7.07375,7.45628L7.07375,7.45628z"/>
</svg>
