<?xml version="1.0" encoding="utf-8"?>
<!-- Generator: Adobe Illustrator 24.2.3, SVG Export Plug-In . SVG Version: 6.00 Build 0)  -->
<svg version="1.1" id="Layer_1" xmlns="http://www.w3.org/2000/svg" xmlns:xlink="http://www.w3.org/1999/xlink" x="0px" y="0px"
	 viewBox="0 0 24 24" style="enable-background:new 0 0 24 24;" xml:space="preserve">
<style type="text/css">
	.st0{fill:#FFFFFF;}
</style>
<circle cx="12" cy="12" r="12"/>
<path class="st0" d="M11.66355,17.71966c-0.35888,0-0.69252-0.08973-1.00095-0.26916
	c-0.30841-0.17944-0.55794-0.42617-0.7486-0.74019c-0.12337-0.2243-0.12616-0.44861-0.00842-0.6729
	c0.11776-0.2243,0.30001-0.33645,0.54673-0.33645c0.14579,0,0.27476,0.04486,0.38692,0.13458
	c0.11215,0.08972,0.21308,0.19066,0.3028,0.3028c0.05608,0.0785,0.13177,0.13739,0.2271,0.17664
	c0.09533,0.03925,0.19345,0.05887,0.29439,0.05887c0.19066,0,0.35047-0.06448,0.47944-0.19345
	c0.12897-0.12897,0.19345-0.28878,0.19345-0.47944s-0.06448-0.35047-0.19345-0.47944
	c-0.12897-0.12897-0.28878-0.19345-0.47944-0.19345H5.94389c-0.19066,0-0.35047-0.06448-0.47944-0.19345
	c-0.12897-0.12897-0.19346-0.28878-0.19346-0.47944c0-0.19066,0.06448-0.35047,0.19346-0.47944
	c0.12897-0.12899,0.28878-0.19347,0.47944-0.19347h5.71966c0.56075,0,1.03739,0.19626,1.42992,0.58879
	c0.39253,0.39253,0.58879,0.86916,0.58879,1.42992c0,0.56075-0.19626,1.03739-0.58879,1.42992
	C12.70094,17.5234,12.2243,17.71966,11.66355,17.71966z M5.94389,10.99065c-0.19066,0-0.35047-0.06448-0.47944-0.19345
	c-0.12897-0.12897-0.19346-0.2888-0.19346-0.47944s0.06448-0.35047,0.19345-0.47944
	c0.12897-0.12897,0.28878-0.19345,0.47944-0.19345h8.41127c0.28037,0,0.51869-0.09813,0.71496-0.29439
	c0.19627-0.19626,0.29439-0.43458,0.29439-0.71496c0-0.28037-0.09813-0.51869-0.29439-0.71496
	c-0.19626-0.19626-0.43459-0.29439-0.71496-0.29439c-0.17943,0-0.34766,0.04206-0.50467,0.12616s-0.28038,0.20467-0.37011,0.36167
	c-0.0785,0.13458-0.17383,0.25514-0.28599,0.36168c-0.11214,0.10654-0.24673,0.15981-0.40374,0.15981
	c-0.2243,0-0.40655-0.08411-0.54673-0.25234c-0.14017-0.16821-0.17663-0.34765-0.10934-0.53831
	c0.15701-0.47103,0.44019-0.84954,0.84954-1.13553c0.40934-0.28599,0.86635-0.42897,1.37104-0.42897
	c0.65048,0,1.20561,0.22991,1.66543,0.68973s0.68973,1.01495,0.68973,1.66543c0,0.65048-0.22991,1.20561-0.68973,1.66543
	c-0.45982,0.45982-1.01495,0.68973-1.66543,0.68973C14.35516,10.99065,5.94389,10.99065,5.94389,10.99065z M17.34957,16.17198
	c-0.2243,0.10093-0.44299,0.08691-0.65608-0.04206c-0.21309-0.12897-0.31963-0.31682-0.31963-0.56355
	c0-0.15701,0.05327-0.28878,0.15981-0.39532c0.10654-0.10654,0.2271-0.19907,0.36168-0.27757
	c0.15701-0.08972,0.27757-0.21308,0.36168-0.37009c0.08411-0.15701,0.12617-0.32524,0.12617-0.50467
	c0-0.28037-0.09813-0.51869-0.29439-0.71496c-0.19625-0.19627-0.43456-0.29439-0.71494-0.29439H5.94389
	c-0.19066,0-0.35047-0.06448-0.47944-0.19345c-0.12897-0.12899-0.19346-0.2888-0.19346-0.47946s0.06448-0.35047,0.19345-0.47944
	c0.12897-0.12897,0.28878-0.19345,0.47944-0.19345h10.42996c0.65048,0,1.20561,0.22991,1.66543,0.68973
	c0.45982,0.45982,0.68973,1.01497,0.68973,1.66543c0,0.47103-0.12337,0.90001-0.37009,1.28692S17.77573,15.98134,17.34957,16.17198z
	"/>
</svg>
